{"title":"Ai to kibô no machi aka A Street of Love and Hope (1959)","uid":9939925,"size":938015621,"categoryP":"video","categoryS":"movies","magnet":"?xt=urn:btih:97d0a020e026092ada5befa8df685b29d15bbc1a&amp;dn=Ai+to+kib%26ocirc%3B+no+machi+aka+A+Street+of+Love+and+Hope+%281959%29&amp;tr=udp%3A%2F%2Ftracker.openbittorrent.com%3A80&amp;tr=udp%3A%2F%2Fopen.demonii.com%3A1337&amp;tr=udp%3A%2F%2Ftracker.coppersurfer.tk%3A6969&amp;tr=udp%3A%2F%2Fexodus.desync.com%3A6969","seeders":1,"leechers":0,"uploader":"cavallone","files":1,"time":1397223184,"description":"Plot: The film Oshima made was originally titled The Boy Who Sold Pigeon, but the producers changed the films title to Street of Love and Hope, , against Oshima's wishes. The film focuses on a young man named Masao whose father has passed away, whose mother is sick, and whose sister is mildly retarded. In order to make ends meet, Masao works at his mother's shoeshine booth and also sells his sister's pet pigeons. It would of course seem that selling the pigeons would be a one time thing, but since the birds are homing pigeons they return to Masao and then he is able to sell them again.\n\nRip specs:\n\n\nFormat                                   : Matroska\nFormat version                           : Version 2\nFile size                                : 895 MiB\nDuration                                 : 1h 2mn\nOverall bit rate                         : 2 007 Kbps\nEncoded date                             : UTC 2010-01-31 02:54:36\nWriting application                      : mkvmerge v3.1.0 ('Happy up here') built on Jan 19 2010 12:09:24\nWriting library                          : libebml v0.7.9 + libmatroska v0.8.1\n\nVideo\nID                                       : 1\nFormat                                   : AVC\nFormat/Info                              : Advanced Video Codec\nFormat profile                           : &lt;a class=&quot;__cf_email__&quot; href=&quot;/cdn-cgi/l/email-protection&quot; data-cfemail=&quot;470f2e202f070b746976&quot;&gt;[email&amp;#160;protected]&lt;/a&gt;&lt;script cf-hash='f9e31' type=&quot;text/javascript&quot;&gt;\n/* &lt;![CDATA[ */!function(){try{var t=&quot;currentScript&quot;in document?document.currentScript:function(){for(var t=document.getElementsByTagName(&quot;script&quot;),e=t.length;e--;)if(t[e].getAttribute(&quot;cf-hash&quot;))return t[e]}();if(t&amp;&amp;t.previousSibling){var e,r,n,i,c=t.previousSibling,a=c.getAttribute(&quot;data-cfemail&quot;);if(a){for(e=&quot;&quot;,r=parseInt(a.substr(0,2),16),n=2;a.length-n;n+=2)i=parseInt(a.substr(n,2),16)^r,e+=String.fromCharCode(i);e=document.createTextNode(e),c.parentNode.replaceChild(e,c)}}}catch(u){}}();/* ]]&gt; */&lt;/script&gt;\nFormat settings, CABAC                   : Yes\nFormat settings, ReFrames                : 16 frames\nCodec ID                                 : V_MPEG4/ISO/AVC\nDuration                                 : 1h 2mn\nBit rate                                 : 1 622 Kbps\nWidth                                    : 716 pixels\nHeight                                   : 360 pixels\nDisplay aspect ratio                     : 2.35:1\nFrame rate mode                          : Constant\nFrame rate                               : 23.976 fps\nColor space                              : YUV\nChroma subsampling                       : 4:2:0\nBit depth                                : 8 bits\nScan type                                : Progressive\nBits/(Pixel*Frame)                       : 0.262\nStream size                              : 706 MiB (79%)\nTitle                                    : Video Track\nWriting library                          : x264 core 80 r1376M 3feaec2\nEncoding settings                        : cabac=1 / ref=16 / deblock=1:-2:-2 / analyse=0x3:0x133 / me=umh / subme=10 / psy=1 / psy_rd=1.1:0.1 / mixed_ref=1 / me_range=32 / chroma_me=1 / trellis=2 / 8x8dct=1 / cqm=0 / deadzone=21,11 / fast_pskip=1 / chroma_qp_offset=-3 / threads=6 / sliced_threads=0 / nr=0 / decimate=1 / mbaff=0 / constrained_intra=0 / bframes=8 / b_pyramid=2 / b_adapt=2 / b_bias=0 / direct=3 / wpredb=1 / wpredp=2 / keyint=250 / keyint_min=25 / scenecut=40 / rc_lookahead=60 / rc=2pass / mbtree=1 / bitrate=1622 / ratetol=1.0 / qcomp=0.60 / qpmin=10 / qpmax=51 / qpstep=4 / cplxblur=20.0 / qblur=0.5 / ip_ratio=1.40 / aq=1:1.00\nLanguage                                 : Japanese\nDefault                                  : No\nForced                                   : No\n\nAudio\nID                                       : 2\nFormat                                   : AC-3\nFormat/Info                              : Audio Coding 3\nMode extension                           : CM (complete main)\nFormat settings, Endianness              : Big\nCodec ID                                 : A_AC3\nDuration                                 : 1h 2mn\nBit rate mode                            : Constant\nBit rate                                 : 384 Kbps\nChannel(s)                               : 2 channels\nChannel positions                        : Front: L R\nSampling rate                            : 48.0 KHz\nBit depth                                : 16 bits\nCompression mode                         : Lossy\nStream size                              : 171 MiB (19%)\nTitle                                    : Audio Track\nLanguage                                 : Japanese\nDefault                                  : Yes\nForced                                   : No\n\nText\nID                                       : 3\nFormat                                   : UTF-8\nCodec ID                                 : S_TEXT/UTF8\nCodec ID/Info                            : UTF-8 Plain Text\nTitle                                    : Subtitle Track\nLanguage                                 : English\nDefault                                  : Yes\nForced                                   : No\n\n\n","torrent":{"xt":"urn:btih:97d0a020e026092ada5befa8df685b29d15bbc1a","amp;dn":"Ai+to+kib%26ocirc%3B+no+machi+aka+A+Street+of+Love+and+Hope+%281959%29","amp;tr":["udp%3A%2F%2Ftracker.openbittorrent.com%3A80","udp%3A%2F%2Fopen.demonii.com%3A1337","udp%3A%2F%2Ftracker.coppersurfer.tk%3A6969","udp%3A%2F%2Fexodus.desync.com%3A6969"],"infoHash":"97d0a020e026092ada5befa8df685b29d15bbc1a","infoHashBuffer":{"type":"Buffer","data":[151,208,160,32,224,38,9,42,218,91,239,168,223,104,91,41,209,91,188,26]},"announce":[],"urlList":[]}}